<?xml version="1.0" standalone="no"?>
<!DOCTYPE svg PUBLIC "-//W3C//DTD SVG 20010904//EN"
 "http://www.w3.org/TR/2001/REC-SVG-20010904/DTD/svg10.dtd">
<svg version="1.0" xmlns="http://www.w3.org/2000/svg"
 width="1024.000000pt" height="320.000000pt" viewBox="0 0 1024.000000 320.000000"
 preserveAspectRatio="xMidYMid meet">

<g transform="translate(0.000000,320.000000) scale(0.100000,-0.100000)"
fill="#000000" stroke="none">
<path d="M1395 3036 c-333 -55 -590 -190 -823 -431 -202 -208 -319 -428 -384
-716 -32 -145 -32 -426 0 -571 42 -191 120 -375 224 -526 59 -84 243 -282 264
-282 7 0 20 10 28 22 16 22 13 25 -68 108 -75 76 -186 213 -186 229 0 3 259
110 576 236 l576 230 -6 65 c-3 36 -6 89 -6 118 0 28 -4 52 -10 52 -5 0 -58
-29 -117 -64 -202 -119 -1054 -598 -1074 -603 -21 -6 -24 8 -8 38 8 16 2 38
-29 112 -82 190 -115 349 -115 552 0 86 6 176 17 232 77 435 347 798 743 997
151 75 288 115 470 136 64 7 92 15 108 30 l22 21 7 -233 c3 -128 9 -441 12
-695 4 -255 9 -463 11 -463 2 0 38 19 80 42 66 36 78 40 96 29 11 -7 234 -171
496 -364 542 -398 509 -375 496 -360 -5 6 -221 178 -480 382 -266 211 -473
381 -478 394 -4 12 -46 285 -92 607 -47 322 -88 593 -91 603 -5 16 0 17 48 12
282 -31 508 -113 705 -254 49 -36 85 -55 90 -50 13 13 158 -140 220 -232 122
-181 203 -404 238 -657 15 -108 20 -117 68 -143 15 -9 17 -4 17 54 0 159 -55
362 -150 552 -83 167 -163 277 -298 407 -191 185 -410 304 -672 364 -132 31
-399 41 -525 20z"/>
<path d="M2315 2979 c97 -56 107 -66 93 -92 -9 -18 -7 -23 13 -36 122 -81 278
-228 365 -345 340 -455 398 -1041 154 -1551 -65 -135 -156 -262 -275 -381
-120 -121 -183 -170 -319 -251 -341 -201 -812 -254 -1186 -131 -476 155 -841
527 -979 997 -32 106 -61 290 -61 384 l0 52 -34 -54 c-31 -50 -33 -58 -29
-120 17 -239 125 -527 280 -744 77 -108 257 -287 366 -364 352 -248 807 -344
1222 -257 528 111 971 501 1149 1013 66 189 80 280 80 511 0 174 -3 220 -22
306 -31 142 -65 242 -127 369 -146 301 -366 530 -666 694 -98 53 -115 53 -24
0z"/>
<path d="M1551 2954 c0 -11 3 -14 6 -6 3 7 2 16 -1 19 -3 4 -6 -2 -5 -13z"/>
<path d="M1461 2348 c-46 -320 -87 -591 -90 -600 -3 -9 -202 -171 -441 -358
-239 -188 -442 -349 -450 -358 -13 -14 -13 -15 0 -5 8 6 215 154 460 330 245
176 454 326 466 333 17 10 28 8 73 -14 104 -53 110 -50 32 22 l-74 68 57 568
c32 312 56 574 54 583 -2 8 -41 -248 -87 -569z"/>
<path d="M5272 2561 c-23 -14 -391 -495 -386 -503 3 -5 108 -8 233 -8 l229 0
191 247 c105 137 190 252 188 258 -4 12 -436 19 -455 6z"/>
<path d="M5814 2563 c-18 -14 -384 -491 -384 -502 0 -7 40 -11 118 -11 l117 1
185 240 c102 131 185 247 185 257 0 15 -13 17 -105 20 -58 1 -110 -1 -116 -5z"/>
<path d="M6144 2563 c-19 -14 -384 -491 -384 -502 0 -7 33 -11 93 -11 l93 0
190 245 c104 135 189 251 189 258 0 14 -162 23 -181 10z"/>
<path d="M6433 2548 c-39 -44 -364 -468 -370 -483 -5 -14 5 -16 68 -13 l74 3
188 243 c117 150 187 248 183 257 -4 11 -22 15 -64 15 -48 0 -62 -4 -79 -22z"/>
<path d="M6723 2562 c-22 -14 -391 -497 -386 -504 2 -5 28 -8 57 -8 l53 0 189
245 c104 135 189 251 189 258 0 14 -83 22 -102 9z"/>
<path d="M6964 2562 c-19 -13 -384 -490 -384 -501 0 -8 33 -11 107 -9 l107 3
46 57 45 58 358 0 357 0 0 -47 c0 -72 4 -74 101 -71 l84 3 3 249 c2 193 -1
251 -10 258 -16 10 -799 10 -814 0z m634 -194 l3 -68 -301 0 c-173 0 -300 4
-300 9 0 10 78 112 94 123 6 5 121 7 256 5 l245 -2 3 -67z"/>
<path d="M7902 2562 c-9 -7 -12 -65 -10 -258 l3 -249 90 0 90 0 5 155 c4 119
8 154 18 152 7 -1 74 -40 148 -87 l135 -85 77 0 78 0 144 90 c79 50 147 87
152 82 4 -4 9 -75 10 -157 l3 -150 90 0 90 0 3 244 c2 171 -1 248 -9 257 -8
10 -35 14 -89 14 l-78 0 -148 -96 c-184 -119 -240 -154 -247 -154 -3 0 -92 56
-197 125 l-192 125 -77 0 c-42 0 -82 -4 -89 -8z"/>
<path d="M9136 2554 c-14 -13 -16 -49 -16 -243 0 -166 3 -232 13 -244 11 -16
52 -17 537 -15 l525 3 0 150 0 150 -272 3 -273 2 -6 -25 c-3 -14 -3 -36 0 -50
l6 -25 180 0 180 0 0 -35 0 -35 -342 2 -343 3 -3 114 c-2 85 1 117 10 123 7 4
203 8 435 8 421 0 422 0 434 21 13 26 5 89 -13 101 -7 4 -243 8 -525 8 -452 0
-513 -2 -527 -16z"/>
<path d="M6210 1531 l0 -261 40 0 40 0 0 101 0 100 215 -3 c159 -2 217 -6 227
-16 8 -8 14 -46 17 -97 l3 -85 34 0 34 0 0 86 c0 82 -1 87 -30 116 -17 17 -30
32 -28 33 2 1 13 7 25 14 44 23 56 160 18 217 -24 37 -76 45 -342 51 l-253 6
0 -262z m520 169 c25 -25 27 -105 4 -138 -15 -22 -19 -22 -230 -22 l-214 0 0
90 0 90 210 0 c197 0 211 -1 230 -20z"/>
<path d="M7133 1781 c-91 -23 -115 -67 -121 -220 -7 -183 18 -250 107 -280 42
-14 432 -15 480 -1 88 25 116 99 109 286 -5 126 -20 164 -78 199 -32 18 -54
20 -250 22 -118 1 -230 -2 -247 -6z m447 -69 c43 -22 48 -39 48 -182 0 -143
-5 -160 -48 -182 -30 -15 -64 -18 -218 -18 -202 0 -244 9 -262 55 -13 34 -13
256 0 290 17 46 56 54 260 55 157 0 190 -3 220 -18z"/>
<path d="M9693 1779 c-75 -17 -113 -81 -100 -166 4 -19 14 -45 24 -56 38 -42
78 -50 287 -55 176 -4 201 -7 217 -23 22 -22 25 -66 7 -104 -18 -39 -63 -47
-257 -43 -168 3 -173 4 -192 27 -10 13 -19 36 -19 52 0 26 -3 29 -35 29 -34 0
-35 -1 -35 -37 0 -55 30 -98 83 -118 63 -24 426 -19 473 7 45 25 67 77 62 150
-8 110 -53 128 -322 128 -201 0 -211 4 -211 80 0 77 9 80 220 80 190 0 214 -6
230 -58 8 -28 13 -32 43 -32 34 0 35 0 29 37 -9 52 -37 86 -83 100 -47 14
-360 15 -421 2z"/>
<path d="M3980 1525 l0 -255 35 0 35 0 0 100 0 100 178 0 c227 0 288 9 325 50
24 27 27 38 27 103 0 150 -15 157 -347 157 l-253 0 0 -255z m504 179 c11 -10
16 -34 16 -74 0 -92 4 -90 -241 -90 l-209 0 0 90 0 90 209 0 c177 0 212 -2
225 -16z"/>
<path d="M4760 1525 l0 -255 275 0 275 0 0 30 0 30 -240 0 -240 0 0 90 0 90
230 0 230 0 0 30 0 30 -230 0 -230 0 0 75 0 75 240 0 240 0 0 30 0 30 -275 0
-275 0 0 -255z"/>
<path d="M5440 1750 l0 -30 135 0 135 0 0 -225 0 -225 35 0 35 0 0 225 0 225
135 0 135 0 0 30 0 30 -305 0 -305 0 0 -30z"/>
<path d="M7910 1525 l0 -255 35 0 35 0 2 226 3 226 250 -226 249 -226 48 0 48
0 0 255 0 255 -35 0 -35 0 0 -215 c0 -118 -3 -215 -7 -215 -5 0 -115 97 -245
215 l-237 215 -56 0 -55 0 0 -255z"/>
<path d="M8887 1531 c-86 -138 -157 -253 -157 -256 0 -3 17 -5 38 -5 35 0 40
4 71 55 l33 55 222 0 221 0 35 -55 c32 -50 38 -55 72 -55 l38 0 -45 73 c-25
39 -96 153 -159 252 l-113 180 -49 3 -50 3 -157 -250z m297 55 c47 -74 86
-137 86 -140 0 -4 -79 -6 -175 -6 -96 0 -175 3 -175 7 0 11 165 273 172 273 3
0 45 -61 92 -134z"/>
<path d="M1615 1455 l0 -116 370 -150 c204 -82 459 -186 568 -230 191 -77 255
-93 263 -64 3 10 -1147 662 -1183 671 -17 5 -18 -4 -18 -111z"/>
<path d="M439 1003 c-13 -16 -12 -17 4 -4 9 7 17 15 17 17 0 8 -8 3 -21 -13z"/>
<path d="M4870 820 c0 -162 2 -190 15 -190 12 0 15 17 15 90 l0 90 81 0 c60 0
80 3 77 13 -3 8 -31 13 -81 15 l-77 3 0 69 0 70 86 0 c64 0 85 3 82 13 -3 8
-35 13 -101 15 l-97 3 0 -191z"/>
<path d="M5254 1000 c-29 -12 -70 -63 -84 -106 -17 -49 -7 -154 17 -196 61
-104 187 -101 242 5 48 94 22 242 -51 287 -34 21 -87 25 -124 10z m105 -36
c33 -24 61 -91 61 -149 0 -134 -102 -211 -179 -135 -88 89 -46 300 61 300 18
0 44 -7 57 -16z"/>
<path d="M5580 821 c0 -163 2 -191 15 -191 12 0 15 16 15 81 l0 80 37 -3 c35
-3 40 -8 83 -80 28 -49 51 -78 63 -78 9 0 17 3 17 6 0 4 -21 40 -46 82 l-45
75 34 28 c41 34 52 68 37 115 -15 44 -47 60 -137 69 l-73 7 0 -191z m161 133
c21 -18 25 -64 9 -94 -12 -22 -60 -40 -106 -40 l-34 0 0 81 0 82 56 -6 c32 -3
64 -13 75 -23z"/>
<path d="M5930 821 c0 -163 2 -191 15 -191 13 0 15 26 16 168 l1 167 56 -168
c74 -220 76 -220 151 3 l56 165 3 -167 c2 -141 5 -168 17 -168 13 0 15 26 13
188 l-3 187 -24 0 c-23 0 -29 -13 -82 -170 -41 -120 -60 -164 -64 -150 -90
271 -111 320 -132 323 l-23 3 0 -190z"/>
<path d="M6390 858 c0 -172 6 -193 60 -220 71 -36 160 -13 186 47 18 44 16
316 -2 322 -8 3 -13 -44 -16 -153 -5 -156 -5 -157 -32 -181 -49 -42 -136 -25
-156 30 -5 16 -10 92 -10 168 0 117 -2 139 -15 139 -13 0 -15 -24 -15 -152z"/>
<path d="M6780 820 l0 -190 95 0 c114 0 128 18 18 22 l-78 3 -3 178 c-2 148
-5 177 -17 177 -13 0 -15 -29 -15 -190z"/>
<path d="M7190 1007 c0 -2 -29 -88 -65 -190 -56 -163 -62 -187 -47 -187 13 0
23 14 33 48 l15 47 76 3 76 3 17 -51 c10 -29 23 -50 31 -50 8 0 14 3 14 8 1
26 -127 372 -137 372 -7 0 -13 -1 -13 -3z m70 -234 c0 -9 -18 -13 -61 -13 -48
0 -60 3 -56 14 3 7 15 47 27 87 12 41 25 78 28 83 6 10 62 -146 62 -171z"/>
<path d="M7704 1000 c-32 -13 -72 -66 -85 -113 -15 -55 -6 -148 18 -189 61
-104 191 -100 245 6 30 58 29 165 -1 224 -35 69 -110 99 -177 72z m115 -46
c91 -77 50 -304 -56 -304 -70 0 -116 66 -115 165 0 71 12 107 48 140 36 33 83
33 123 -1z"/>
<path d="M8030 820 c0 -161 2 -190 15 -190 12 0 15 26 17 156 l3 156 89 -156
c122 -216 126 -215 126 35 0 148 -3 190 -12 187 -10 -3 -14 -49 -18 -164 l-5
-159 -93 163 c-52 89 -100 162 -108 162 -12 0 -14 -33 -14 -190z"/>
<path d="M8420 820 l0 -190 100 0 c121 0 135 18 18 22 l-83 3 -3 78 -3 77 81
0 c61 0 81 3 78 13 -3 8 -31 13 -81 15 l-77 3 0 69 0 70 86 0 c64 0 85 3 82
13 -3 8 -35 13 -101 15 l-97 3 0 -191z"/>
<path d="M8880 996 c0 -11 14 -16 48 -18 l47 -3 3 -172 c2 -145 5 -173 17
-173 13 0 15 27 15 175 l0 175 51 0 c36 0 49 4 47 13 -3 8 -38 13 -116 15 -93
2 -112 0 -112 -12z"/>
<path d="M9210 820 l0 -190 100 0 c60 0 100 4 100 10 0 6 -35 10 -85 10 l-85
0 0 80 0 80 75 0 c60 0 75 3 75 15 0 12 -15 15 -75 15 l-75 0 0 70 0 70 86 0
c64 0 85 3 82 13 -3 8 -35 13 -101 15 l-97 3 0 -191z"/>
<path d="M9615 998 c-59 -165 -124 -362 -121 -366 13 -13 34 11 46 52 l13 46
77 0 77 0 13 -46 c12 -41 33 -65 46 -52 8 8 -122 372 -134 376 -7 2 -14 -2
-17 -10z m44 -126 c13 -42 26 -85 28 -94 5 -16 -2 -18 -57 -18 -55 0 -62 2
-57 18 28 98 52 172 57 172 3 0 16 -35 29 -78z"/>
<path d="M9877 1004 c-4 -4 -7 -90 -7 -191 0 -176 1 -183 20 -183 19 0 20 7
21 163 l0 162 57 -162 c42 -120 61 -163 73 -163 12 0 30 40 69 153 29 83 56
159 61 167 5 9 9 -53 9 -152 0 -144 2 -168 15 -168 13 0 15 25 13 188 l-3 187
-24 0 c-23 0 -29 -13 -82 -170 -41 -120 -60 -164 -64 -150 -87 261 -111 320
-130 323 -12 2 -24 0 -28 -4z"/>
</g>
</svg>
